<svg id="svg" version="1.1" xmlns="http://www.w3.org/2000/svg" xmlns:xlink="http://www.w3.org/1999/xlink" width="400" height="400" viewBox="0, 0, 400,400"><g id="svgg"><path id="path0" d="M264.844 71.459 C 248.619 74.629,235.705 84.815,228.798 99.893 L 227.943 101.758 228.030 136.719 C 228.077 155.947,228.269 190.400,228.456 213.281 L 228.796 254.883 227.948 256.142 C 227.481 256.835,225.740 258.642,224.077 260.157 C 196.571 285.231,158.319 292.965,124.448 280.301 C 121.888 279.344,119.489 278.243,119.117 277.855 C 118.159 276.854,117.529 164.372,118.475 163.111 C 119.033 162.365,119.100 162.368,123.095 163.306 C 159.886 171.946,194.463 135.459,173.433 110.188 C 155.585 88.741,109.507 96.959,99.597 123.357 C 98.096 127.356,98.057 129.047,97.635 207.558 C 97.186 291.056,97.117 287.538,99.279 291.317 C 109.193 308.644,136.052 323.438,161.240 325.446 C 197.828 328.363,231.071 314.711,245.388 290.891 C 248.446 285.802,248.211 292.489,248.227 210.273 C 248.239 150.947,248.342 135.877,248.736 135.483 C 249.133 135.085,250.074 135.201,253.579 136.079 C 288.936 144.935,323.285 113.237,307.365 86.444 C 300.372 74.674,281.832 68.141,264.844 71.459 M262.003 143.830 C 261.566 144.151,261.068 145.513,260.652 147.520 C 259.744 151.912,259.789 151.953,265.446 151.953 C 271.237 151.953,272.053 152.360,270.555 154.503 C 270.259 154.927,267.766 159.316,265.015 164.258 C 257.491 177.776,256.850 178.923,255.530 181.250 C 254.168 183.651,253.796 187.379,254.833 188.240 C 255.212 188.554,258.549 188.654,266.253 188.580 L 277.138 188.477 277.655 187.399 C 278.452 185.734,278.746 181.049,278.079 180.631 C 277.782 180.444,275.430 180.199,272.852 180.087 C 266.906 179.828,266.932 179.911,270.753 173.165 C 281.087 154.927,284.171 147.077,282.037 144.441 C 281.155 143.351,263.392 142.809,262.003 143.830 M269.141 192.317 C 261.602 194.066,258.507 200.081,255.843 218.164 C 253.945 231.045,256.584 236.233,265.246 236.647 C 275.951 237.159,280.562 229.328,282.589 207.198 C 283.713 194.927,279.236 189.974,269.141 192.317 M273.296 200.995 C 274.456 202.155,274.431 202.760,272.819 212.500 C 270.564 226.134,269.699 228.516,267.004 228.516 C 263.260 228.516,263.335 221.856,267.262 205.469 C 268.400 200.719,271.053 198.752,273.296 200.995 M261.064 242.435 C 259.204 242.850,259.236 243.310,261.654 250.836 C 262.921 254.781,264.197 258.955,264.489 260.114 L 265.020 262.220 263.433 265.192 C 262.560 266.827,260.061 271.469,257.879 275.509 C 252.346 285.750,252.351 285.531,257.647 285.541 C 261.316 285.548,261.731 285.261,263.385 281.578 C 264.970 278.048,267.565 273.828,268.151 273.828 C 268.779 273.828,269.159 274.903,270.483 280.410 C 271.744 285.660,271.627 285.547,275.781 285.547 C 280.445 285.547,280.432 285.570,278.899 279.813 C 274.554 263.495,274.589 263.755,276.355 260.956 C 278.500 257.559,285.566 244.788,285.786 243.911 C 286.096 242.675,285.032 242.295,281.404 242.348 C 277.885 242.400,277.830 242.450,274.950 248.204 C 271.286 255.525,271.258 255.526,269.571 248.471 C 268.935 245.813,268.168 243.391,267.867 243.091 C 267.305 242.528,262.655 242.080,261.064 242.435 " stroke="none" fill="#fa4b04" fill-rule="evenodd"></path><path id="path1" d="M0.000 200.000 L 0.000 400.000 200.000 400.000 L 400.000 400.000 400.000 200.000 L 400.000 0.000 200.000 0.000 L 0.000 0.000 0.000 200.000 M285.156 71.671 C 294.291 73.724,303.412 79.792,307.365 86.444 C 323.285 113.237,288.936 144.935,253.579 136.079 C 250.074 135.201,249.133 135.085,248.736 135.483 C 248.342 135.877,248.239 150.947,248.227 210.273 C 248.211 292.489,248.446 285.802,245.388 290.891 C 224.250 326.060,163.204 337.054,122.401 313.041 C 110.555 306.069,99.130 294.152,97.643 287.217 C 97.121 284.782,97.857 131.070,98.406 127.734 C 100.557 114.683,116.146 101.638,133.242 98.583 C 164.750 92.952,188.363 115.546,176.735 140.200 C 168.493 157.673,144.012 168.218,123.095 163.306 C 119.100 162.368,119.033 162.365,118.475 163.111 C 117.529 164.372,118.159 276.854,119.117 277.855 C 119.489 278.243,121.888 279.344,124.448 280.301 C 158.319 292.965,196.571 285.231,224.077 260.157 C 225.740 258.642,227.481 256.835,227.948 256.142 L 228.796 254.883 228.456 213.281 C 228.269 190.400,228.077 155.947,228.030 136.719 L 227.943 101.758 228.798 99.893 C 237.417 81.079,254.486 70.449,275.391 70.874 C 279.912 70.965,283.218 71.235,285.156 71.671 M282.037 144.441 C 284.171 147.077,281.087 154.927,270.753 173.165 C 266.932 179.911,266.906 179.828,272.852 180.087 C 275.430 180.199,277.782 180.444,278.079 180.631 C 278.746 181.049,278.452 185.734,277.655 187.399 L 277.138 188.477 266.253 188.580 C 258.549 188.654,255.212 188.554,254.833 188.240 C 253.796 187.379,254.168 183.651,255.530 181.250 C 256.850 178.923,257.491 177.776,265.015 164.258 C 267.766 159.316,270.259 154.927,270.555 154.503 C 272.053 152.360,271.237 151.953,265.446 151.953 C 259.789 151.953,259.744 151.912,260.652 147.520 C 261.568 143.091,260.989 143.300,272.007 143.438 C 281.149 143.553,281.333 143.571,282.037 144.441 M277.209 192.601 C 283.232 194.891,284.356 202.094,281.107 217.578 C 277.796 233.354,274.682 237.098,265.246 236.647 C 254.929 236.154,253.126 229.422,257.627 208.203 C 260.392 195.163,268.002 189.100,277.209 192.601 M270.071 200.454 C 268.422 201.253,267.633 203.347,266.044 211.133 C 263.318 224.487,263.541 228.516,267.004 228.516 C 269.699 228.516,270.564 226.134,272.819 212.500 C 274.431 202.760,274.456 202.155,273.296 200.995 C 272.241 199.940,271.417 199.802,270.071 200.454 M267.867 243.091 C 268.168 243.391,268.935 245.813,269.571 248.471 C 271.258 255.526,271.286 255.525,274.950 248.204 C 277.830 242.450,277.885 242.400,281.404 242.348 C 285.032 242.295,286.096 242.675,285.786 243.911 C 285.566 244.788,278.500 257.559,276.355 260.956 C 274.589 263.755,274.554 263.495,278.899 279.813 C 280.432 285.570,280.445 285.547,275.781 285.547 C 271.627 285.547,271.744 285.660,270.483 280.410 C 269.159 274.903,268.779 273.828,268.151 273.828 C 267.565 273.828,264.970 278.048,263.385 281.578 C 261.731 285.261,261.316 285.548,257.647 285.541 C 252.351 285.531,252.346 285.750,257.879 275.509 C 260.061 271.469,262.560 266.827,263.433 265.192 L 265.020 262.220 264.489 260.114 C 264.197 258.955,262.921 254.781,261.654 250.836 C 259.236 243.310,259.204 242.850,261.064 242.435 C 262.655 242.080,267.305 242.528,267.867 243.091 " stroke="none" fill="#040404" fill-rule="evenodd"></path></g></svg>